<?xml version="1.0" standalone="no"?>
<!DOCTYPE svg PUBLIC "-//W3C//DTD SVG 20010904//EN"
 "http://www.w3.org/TR/2001/REC-SVG-20010904/DTD/svg10.dtd">
<svg version="1.0" xmlns="http://www.w3.org/2000/svg"
 width="466.000000pt" height="466.000000pt" viewBox="0 0 466.000000 466.000000"
 preserveAspectRatio="xMidYMid meet">
<g transform="translate(0.000000,466.000000) scale(0.100000,-0.100000)"
fill="#000000" stroke="none">
<path d="M1175 4632 c2 -15 -1 -22 -11 -22 -12 0 -12 -2 -2 -14 14 -15 32 -11
23 4 -3 5 3 14 14 19 14 8 22 7 30 -3 8 -9 8 -16 2 -20 -5 -4 -12 -2 -16 4 -3
5 -11 10 -17 10 -6 0 -5 -7 3 -17 8 -9 9 -14 2 -10 -6 4 -13 2 -15 -4 -3 -8
-12 -7 -31 6 -24 15 -27 16 -27 1 0 -9 -5 -16 -11 -16 -5 0 -7 5 -4 10 3 6 1
10 -4 10 -6 0 -11 -6 -11 -12 0 -9 -4 -8 -10 2 -6 10 -10 11 -10 3 0 -7 -8
-13 -17 -13 -15 0 -16 2 -3 10 9 6 10 10 3 10 -6 0 -15 -4 -18 -10 -3 -5 -11
-10 -16 -10 -6 0 -8 4 -5 8 3 5 -1 9 -8 9 -11 0 -12 -4 -3 -18 6 -9 18 -15 26
-12 14 4 14 3 1 -6 -10 -7 -19 -6 -31 5 -22 19 -34 18 -14 -2 9 -9 14 -19 11
-21 -3 -3 -12 2 -21 10 -16 17 -45 13 -45 -5 0 -6 6 -6 14 1 11 9 16 9 22 0 4
-8 3 -9 -5 -5 -6 4 -14 0 -17 -9 -6 -14 -8 -14 -21 2 -8 10 -12 13 -9 7 6 -12
-23 -29 -32 -19 -3 3 1 5 8 5 7 0 10 3 7 6 -4 4 -13 1 -22 -6 -8 -7 -26 -10
-40 -8 -13 3 -22 1 -19 -4 6 -9 -37 -28 -49 -21 -4 2 -7 1 -6 -4 1 -4 1 -15 0
-23 -1 -13 -2 -13 -11 0 -8 13 -10 13 -10 -2 0 -9 6 -19 13 -21 6 -3 -6 -4
-28 -3 -41 3 -96 -26 -75 -39 5 -3 10 -1 10 6 0 7 3 10 6 6 14 -13 -8 -26 -30
-17 -20 7 -23 6 -19 -9 2 -10 -3 -23 -11 -30 -9 -8 -16 -10 -16 -5 0 5 -5 2
-11 -6 -9 -13 -10 -13 -6 0 2 8 9 15 15 15 5 0 14 3 18 8 4 4 0 7 -9 7 -9 0
-19 -5 -22 -10 -4 -6 -11 -8 -16 -5 -5 4 -4 -6 2 -22 8 -23 8 -26 -2 -15 -7 6
-20 12 -28 12 -12 0 -13 -2 -3 -9 10 -6 9 -11 -4 -22 -12 -9 -15 -10 -10 -1 4
7 2 12 -5 12 -6 0 -9 -8 -6 -20 3 -10 2 -19 -2 -18 -24 3 -41 -4 -35 -14 5 -7
2 -9 -9 -5 -11 4 -15 1 -12 -13 2 -10 -6 -27 -17 -37 -12 -10 -18 -12 -14 -5
9 14 -10 17 -19 2 -4 -6 -11 -7 -17 -4 -7 4 -8 2 -4 -5 4 -6 11 -9 16 -6 5 3
11 1 14 -4 4 -5 -5 -8 -19 -6 -22 2 -23 0 -13 -13 11 -13 11 -14 -1 -7 -11 6
-13 3 -8 -16 6 -23 5 -23 -8 -5 -14 18 -15 18 -15 2 0 -11 -4 -15 -12 -10 -10
6 -10 4 0 -8 11 -14 10 -16 -10 -12 -13 2 -17 2 -10 -2 17 -8 15 -25 -2 -18
-8 3 -17 0 -22 -7 -4 -8 -3 -10 4 -5 7 4 12 2 12 -3 0 -6 -5 -11 -11 -11 -7 0
-9 -10 -5 -27 l6 -28 -15 25 -16 25 4 -26 c3 -22 0 -26 -20 -23 -13 1 -21 -2
-17 -7 3 -5 10 -7 15 -4 5 3 6 -1 3 -9 -3 -9 -10 -13 -15 -10 -5 3 -9 1 -9 -5
0 -5 6 -12 13 -14 6 -3 1 -6 -13 -7 l-25 -1 25 -14 c25 -13 25 -13 -11 -10
-33 3 -36 1 -33 -22 2 -19 -1 -23 -14 -19 -15 5 -15 4 -2 -7 24 -20 21 -34 -6
-31 -14 1 -23 -1 -19 -4 4 -4 11 -7 16 -7 5 0 8 -4 7 -10 -2 -5 -7 -9 -11 -7
-4 1 -18 -4 -30 -13 -12 -8 -17 -15 -11 -15 5 0 15 5 21 11 8 8 11 4 10 -13
-1 -14 -7 -25 -14 -25 -7 0 -9 5 -6 10 3 6 1 7 -5 4 -12 -8 -10 -32 3 -44 4
-4 5 -2 0 6 -5 10 -4 12 4 7 6 -4 9 -12 5 -17 -3 -5 -10 -7 -15 -3 -13 8 -7
-29 6 -38 6 -5 6 -8 -2 -8 -7 0 -17 8 -23 18 -10 15 -11 15 -5 -3 4 -11 7 -24
8 -30 1 -5 7 -14 12 -18 6 -5 4 -7 -5 -4 -8 2 -14 9 -13 15 1 5 -4 16 -12 22
-11 9 -15 9 -15 1 0 -6 4 -11 8 -11 4 0 9 -11 10 -26 1 -14 -2 -23 -8 -19 -6
3 -10 1 -10 -4 0 -6 5 -11 10 -11 6 0 5 -6 -2 -14 -7 -8 -16 -12 -20 -10 -4 3
-5 -4 -3 -16 2 -11 0 -22 -6 -25 -5 -4 -5 -13 1 -25 15 -28 12 -34 -7 -19 -10
7 -15 9 -11 5 4 -5 2 -16 -5 -25 -11 -14 -10 -14 6 -2 12 9 17 10 17 2 0 -7 5
-9 13 -5 9 6 9 5 0 -8 -7 -8 -11 -17 -8 -20 3 -2 -2 -5 -10 -5 -12 0 -12 3 -2
15 11 13 9 14 -10 1 -13 -8 -23 -17 -23 -22 0 -4 5 -5 10 -2 6 3 10 1 10 -5 0
-6 5 -8 13 -4 8 5 8 2 -2 -9 -16 -20 -25 -23 -15 -4 4 6 3 8 -1 4 -12 -10 -15
-38 -4 -31 5 3 9 0 9 -5 0 -6 -4 -11 -10 -11 -5 0 -10 -7 -10 -16 0 -9 5 -12
13 -8 9 6 9 5 0 -7 -17 -21 -17 -1997 0 -2018 9 -12 9 -13 0 -7 -14 8 -18 -6
-6 -18 11 -10 12 -37 2 -30 -5 3 -9 1 -9 -3 0 -5 9 -14 20 -21 21 -13 27 -32
9 -32 -5 0 -8 4 -5 9 3 5 0 11 -7 14 -8 3 -14 -1 -14 -9 0 -8 4 -14 9 -14 5 0
6 -5 2 -12 -4 -6 -3 -8 4 -5 23 15 38 -4 38 -48 1 -24 -2 -43 -5 -40 -4 2 -8
-6 -8 -18 -2 -17 0 -19 7 -7 7 12 10 9 10 -12 0 -16 5 -28 10 -28 6 0 10 -4
10 -10 0 -5 -8 -7 -18 -5 -9 3 -5 0 9 -7 26 -13 29 -17 29 -39 0 -5 4 -8 8 -5
11 7 9 -35 -2 -53 -6 -10 -5 -12 2 -7 7 4 12 3 12 -3 0 -5 -5 -13 -10 -16 -6
-4 -3 -17 10 -34 10 -16 16 -31 13 -35 -4 -4 0 -4 10 0 14 5 15 8 4 18 -30 25
-38 43 -23 49 10 4 13 1 10 -8 -3 -8 4 -22 15 -31 19 -17 20 -19 3 -37 -16
-19 -16 -19 3 -9 18 9 21 7 22 -16 2 -24 1 -24 -7 -7 -7 15 -9 16 -9 4 -1 -9
7 -23 16 -30 10 -8 14 -9 10 -2 -4 6 -4 14 1 17 4 2 9 -5 9 -17 1 -12 7 -23
13 -25 5 -2 10 -12 10 -23 0 -10 5 -19 11 -19 7 0 10 -12 7 -28 -4 -25 -1 -28
19 -26 26 3 48 -27 40 -57 -5 -19 15 -44 26 -33 8 9 37 -21 37 -38 0 -10 -3
-9 -11 2 -9 12 -10 12 -7 1 6 -22 26 -24 31 -4 3 13 5 11 6 -7 1 -14 11 -37
24 -52 17 -22 25 -26 37 -17 13 10 13 10 0 6 -8 -2 -23 6 -33 19 -14 19 -15
23 -2 18 8 -3 15 -10 15 -14 0 -4 9 -10 21 -13 12 -3 18 -10 15 -15 -8 -13 18
-34 29 -24 5 4 5 2 2 -5 -4 -6 -1 -13 5 -16 7 -2 10 -8 6 -12 -4 -4 -18 5 -32
20 -15 16 -26 23 -26 17 0 -6 11 -19 25 -30 13 -11 22 -22 20 -26 -3 -3 1 -2
7 4 18 15 31 12 25 -5 -4 -8 -1 -17 5 -21 7 -4 8 -3 4 4 -5 8 1 11 18 10 13
-1 22 -6 20 -10 -3 -4 0 -8 5 -8 6 0 11 -5 11 -12 0 -6 -9 -3 -20 7 -26 24
-26 11 0 -15 11 -11 20 -15 20 -10 0 21 20 9 21 -12 1 -22 1 -22 9 2 6 18 8
20 9 7 1 -19 31 -56 31 -39 0 5 12 9 28 9 15 0 21 -2 14 -4 -6 -3 -10 -9 -6
-14 3 -5 1 -9 -5 -9 -5 0 -12 6 -14 13 -3 7 -6 5 -6 -5 -1 -19 24 -25 34 -8 3
5 12 10 18 9 9 0 9 -2 0 -6 -7 -2 -13 -12 -13 -20 0 -13 2 -13 17 -2 15 12 16
12 11 -2 -5 -13 -2 -16 15 -12 18 4 19 3 7 -6 -8 -6 -10 -11 -4 -11 5 0 16 6
23 13 11 9 13 9 7 0 -4 -7 -3 -13 1 -13 5 0 15 6 23 13 9 8 8 4 -2 -14 -16
-25 -16 -26 8 -21 14 2 24 0 24 -7 0 -6 4 -11 9 -11 6 0 8 9 6 20 -2 11 0 18
5 15 5 -3 7 -17 4 -31 -3 -19 -1 -24 8 -18 20 13 38 13 38 2 0 -7 5 -6 14 1
10 8 16 8 25 -2 6 -8 8 -17 4 -20 -3 -4 2 -7 11 -7 12 0 16 -5 12 -15 -4 -12
-2 -14 11 -6 11 6 24 6 36 -1 13 -7 23 -6 31 2 8 8 6 10 -9 5 -16 -5 -17 -5
-5 3 19 14 31 6 23 -16 -6 -15 -5 -15 10 -3 11 9 17 10 17 2 0 -6 8 -11 18
-11 14 0 15 2 2 10 -13 8 -12 10 3 10 15 0 22 -11 18 -33 0 -4 4 -7 9 -7 6 0
10 7 8 16 -2 10 4 19 12 21 13 4 13 3 0 -7 -13 -10 -12 -11 5 -7 15 3 21 -1
22 -15 2 -17 -1 -18 -15 -7 -14 11 -15 11 -5 0 6 -7 10 -19 9 -25 -2 -6 -1 -7
2 -3 2 4 11 2 20 -5 9 -8 13 -8 9 -2 -7 12 40 30 51 19 3 -3 -2 -5 -11 -5 -9
0 -17 -4 -17 -8 0 -4 11 -8 24 -8 14 0 22 4 20 8 -3 4 0 8 5 8 6 0 11 -4 11
-9 0 -13 83 -12 92 2 6 9 8 9 8 0 0 -9 226 -12 955 -12 739 0 954 3 948 12 -5
9 -4 9 8 0 15 -12 73 -12 85 0 4 4 2 7 -4 7 -7 0 -12 5 -12 11 0 8 4 8 15 -1
8 -6 20 -8 27 -4 10 6 9 3 -1 -9 -21 -27 -7 -20 17 8 l22 25 -30 -5 c-16 -3
-30 -1 -30 4 0 6 9 8 20 6 11 -2 20 -1 20 4 0 4 16 5 36 3 21 -3 34 -1 31 5
-3 5 4 10 16 10 17 2 19 0 7 -7 -11 -7 -11 -10 -2 -10 7 0 10 -5 6 -12 -4 -7
-3 -8 5 -4 6 4 9 12 6 17 -4 5 2 12 12 16 10 4 22 11 26 17 5 6 5 0 2 -14 -3
-14 -3 -20 2 -14 12 16 42 24 48 14 4 -6 11 -10 16 -10 6 0 3 7 -6 16 -12 13
-13 19 -4 30 7 8 14 12 18 9 3 -3 -1 -10 -9 -15 -13 -8 -12 -10 3 -10 9 0 17
5 17 11 0 5 5 7 10 4 8 -5 7 -12 -2 -23 -7 -10 -1 -7 13 6 14 12 29 19 33 15
4 -4 4 0 1 9 -4 9 -1 19 6 24 7 4 10 3 5 -4 -3 -6 -2 -13 3 -16 5 -4 12 3 16
14 5 16 9 17 20 7 7 -6 10 -16 7 -22 -3 -5 3 -3 14 5 10 8 20 15 22 16 2 1 -4
4 -13 8 -11 4 -14 2 -9 -6 4 -7 3 -8 -5 -4 -6 4 -9 11 -6 16 6 9 31 8 41 -3 4
-3 18 2 32 13 13 11 28 18 32 15 3 -2 7 2 7 10 0 11 -5 10 -24 -2 -14 -10 -23
-11 -23 -4 0 6 6 11 14 11 8 0 21 9 29 20 13 18 15 19 21 5 4 -10 2 -14 -6 -9
-7 4 -8 3 -4 -5 6 -9 11 -9 22 0 8 7 11 15 6 18 -6 3 -3 13 6 21 14 13 15 12
9 -3 -3 -9 -2 -19 3 -22 6 -4 11 3 11 14 2 33 4 39 11 47 4 3 6 -3 3 -14 -2
-12 0 -24 5 -27 9 -6 22 23 15 34 -2 4 2 8 9 8 8 0 12 -7 9 -16 -3 -12 -2 -12
7 2 6 9 9 21 5 26 -3 5 0 13 6 17 8 4 9 3 5 -4 -4 -7 -1 -12 8 -12 9 0 16 8
17 18 0 15 2 14 10 -3 8 -17 9 -16 6 8 -5 32 -4 32 18 10 16 -15 17 -15 15 3
-4 32 0 45 10 39 5 -3 8 -11 6 -18 -1 -7 -1 -9 1 -4 3 4 9 4 15 1 5 -4 5 4 -2
16 -10 18 -9 21 1 15 9 -6 10 -3 5 11 -5 15 -4 16 5 7 17 -17 37 -5 33 20 -2
12 -2 17 2 10 3 -7 12 -9 20 -6 13 5 13 7 2 14 -10 7 -9 12 6 26 18 16 19 16
7 1 -10 -14 -10 -18 -1 -18 6 0 14 9 17 20 3 11 9 18 13 15 4 -3 10 4 13 15 3
11 11 20 18 20 10 0 10 -3 1 -12 -7 -7 -12 -16 -12 -21 0 -5 9 1 19 14 15 19
17 27 8 38 -10 12 -9 14 4 9 9 -3 22 -2 30 4 11 8 11 9 -3 4 -10 -3 -20 0 -24
6 -4 6 -3 8 2 5 6 -3 16 -2 24 4 11 6 11 9 2 9 -10 0 -10 3 0 14 9 9 17 11 25
4 8 -6 10 -3 6 11 -3 12 -9 19 -13 16 -5 -3 -12 0 -16 7 -4 7 -4 10 1 6 4 -4
15 -2 23 5 9 6 13 7 9 1 -3 -6 0 -11 6 -11 9 0 12 13 11 36 -1 20 0 30 3 24 2
-7 9 -13 14 -13 6 0 5 9 -1 21 -10 19 -10 20 9 10 23 -13 34 -2 20 19 -14 24
-10 36 5 14 10 -13 14 -14 13 -4 -2 8 -6 20 -10 27 -4 6 -3 14 3 18 6 4 7 11
4 17 -4 7 -2 8 4 4 7 -4 12 -1 12 8 0 9 5 16 11 16 5 0 8 4 4 9 -3 5 -1 12 5
16 6 4 7 11 4 17 -4 6 2 6 15 -1 14 -8 21 -8 21 -1 0 5 -6 10 -12 10 -9 0 -8
4 2 10 10 6 11 10 3 10 -7 0 -13 5 -13 11 0 5 5 7 10 4 6 -3 10 -1 10 5 0 6 4
9 8 6 5 -3 9 1 9 10 0 10 -7 12 -20 8 -13 -4 -17 -2 -13 5 4 6 15 11 24 11 15
0 15 2 2 10 -13 9 -13 10 1 10 11 0 15 9 14 34 -2 25 2 33 12 29 9 -4 11 0 6
13 -4 12 -3 15 5 10 7 -4 12 -2 12 3 0 6 -6 11 -12 11 -9 0 -8 4 2 10 12 8 12
10 1 10 -9 0 -6 7 9 20 13 11 19 20 14 20 -6 0 -15 -5 -22 -12 -7 -7 -12 -9
-12 -5 0 3 10 15 22 27 12 11 18 20 13 20 -4 0 0 10 11 22 10 12 13 18 7 14
-8 -4 -13 -1 -13 9 0 9 5 13 10 10 6 -3 10 -2 10 3 0 6 -7 13 -16 16 -12 5
-14 10 -5 20 6 7 7 17 3 21 -4 5 -1 5 6 1 7 -4 10 -12 7 -17 -4 -5 -1 -9 5 -9
7 0 9 8 5 23 -6 18 -5 20 6 9 7 -6 18 -12 24 -12 5 0 2 5 -7 11 -10 5 -18 15
-18 20 0 6 4 8 9 4 5 -3 12 -1 16 4 3 6 -3 8 -15 6 -22 -4 -36 10 -20 20 6 4
8 10 5 15 -3 5 5 7 17 5 22 -4 22 -4 4 10 -10 8 -24 11 -30 8 -6 -4 -4 2 4 13
27 34 41 64 30 64 -5 0 -10 9 -10 19 0 11 -3 21 -7 24 -5 2 -3 2 4 1 22 -5 24
14 3 29 -11 7 -17 17 -13 20 3 4 13 1 21 -6 13 -11 14 -9 2 10 -8 12 -19 19
-25 16 -5 -2 1 4 15 16 l25 20 -25 -5 c-14 -2 -19 -2 -12 2 6 3 12 14 12 25 0
13 -5 17 -17 12 -10 -3 -15 -3 -11 1 3 4 12 8 20 9 7 2 14 7 15 12 1 6 -5 9
-12 7 -9 -2 -13 3 -9 12 3 9 13 12 22 9 13 -4 12 -2 -3 10 -11 8 -24 13 -30 9
-5 -3 -4 2 3 11 8 9 11 21 8 26 -4 5 2 14 11 20 17 10 17 10 0 11 -10 0 -16 4
-12 10 3 5 13 6 22 3 15 -6 16 -5 3 9 -8 9 -17 15 -20 13 -3 -2 -5 14 -5 36
-1 21 2 36 5 33 3 -3 5 -15 5 -26 0 -12 6 -22 13 -24 7 -1 8 0 2 3 -8 3 -8 9
0 18 8 9 8 15 0 20 -13 8 -13 45 0 45 6 0 5 8 -2 20 -10 16 -10 24 -1 40 9 13
9 21 2 26 -8 4 -7 9 2 15 10 6 11 9 2 9 -7 0 -13 7 -13 16 0 9 5 13 13 9 6 -4
3 2 -8 12 -19 17 -31 68 -14 57 17 -10 31 7 18 22 -8 10 -8 14 0 14 8 0 8 5 0
19 -7 11 -9 26 -4 37 12 29 14 45 4 38 -5 -3 -9 2 -9 11 0 10 -5 13 -12 9 -7
-4 -10 -4 -6 1 4 4 2 15 -5 23 -9 13 -9 14 1 8 6 -4 12 -3 12 3 0 6 8 8 18 5
10 -4 13 -2 7 3 -16 13 -18 55 -3 65 9 7 7 8 -7 4 -18 -5 -21 -1 -21 28 0 19
4 32 8 30 16 -10 29 7 17 22 -9 11 -9 14 0 14 7 0 9 5 5 11 -4 8 -9 7 -15 -2
-4 -7 -5 -17 -3 -21 3 -4 0 -8 -6 -8 -7 0 -9 8 -5 21 5 16 4 19 -5 14 -9 -5
-11 -4 -6 4 4 6 12 9 17 6 5 -4 9 3 9 14 0 10 6 22 13 25 6 3 3 4 -8 1 -16 -4
-21 0 -22 17 -2 18 0 19 7 8 8 -13 11 -13 22 -1 10 10 10 12 1 7 -8 -5 -13 -1
-13 9 0 10 -5 13 -12 9 -7 -4 -10 -4 -6 1 4 4 2 15 -5 23 -9 13 -9 14 1 8 6
-4 12 -3 12 3 0 6 8 8 18 5 10 -4 13 -2 7 3 -16 13 -18 55 -3 65 9 7 7 8 -8 4
-14 -4 -21 -2 -21 8 0 8 6 12 14 9 7 -3 13 0 13 6 0 6 -7 11 -16 11 -8 0 -13
4 -9 10 3 5 13 6 22 3 15 -6 16 -5 3 9 -8 9 -17 15 -20 13 -3 -2 -5 14 -5 36
-1 21 2 36 5 33 3 -3 5 -15 5 -26 0 -12 6 -22 13 -24 7 -1 8 0 2 3 -8 3 -8 9
0 18 8 9 8 15 0 20 -13 8 -13 45 0 45 6 0 5 8 -2 20 -10 16 -10 24 -1 40 9 13
9 21 2 26 -8 4 -7 9 2 15 10 6 11 9 2 9 -7 0 -13 7 -13 16 0 9 5 13 13 9 6 -4
2 2 -10 13 -20 18 -25 43 -10 58 3 4 4 -3 2 -16 -4 -18 -2 -20 11 -9 10 8 12
15 4 23 -15 15 -13 89 3 80 9 -6 9 -4 -1 8 -10 13 -10 17 0 22 7 3 3 3 -10 0
l-23 -6 21 36 c11 20 16 36 11 36 -4 0 -13 -10 -19 -22 l-11 -23 3 22 c1 12
11 32 21 45 11 13 13 17 5 11 -21 -19 -35 -16 -19 4 10 11 10 14 2 9 -9 -5
-13 2 -13 24 0 17 -3 29 -8 27 -4 -3 -8 18 -10 46 -2 29 2 53 8 57 8 5 7 9 -2
13 -8 3 -15 -1 -16 -9 -1 -8 -3 -20 -4 -28 -1 -8 -8 -12 -17 -8 -10 4 -11 7
-3 10 16 5 16 79 0 85 -10 4 -10 6 0 6 11 1 10 4 -1 16 -15 14 -12 59 2 50 4
-2 8 2 8 10 0 8 -5 13 -11 12 -6 -1 -10 4 -8 11 1 8 -2 11 -8 7 -5 -3 -10 -1
-10 5 0 6 -6 8 -13 4 -6 -4 -9 -3 -4 1 4 5 0 19 -9 33 -9 13 -11 21 -5 18 7
-5 11 1 11 14 0 14 -4 19 -12 14 -9 -6 -9 -3 0 9 12 14 12 19 -1 31 -8 8 -18
12 -22 8 -5 -4 -5 -1 -1 6 6 9 11 10 20 3 9 -8 13 -7 13 3 0 8 -11 13 -25 12
-19 -1 -26 5 -29 24 -2 18 -1 21 6 10 5 -8 7 -18 5 -22 -3 -4 2 -5 10 -2 12 5
11 10 -9 31 -13 14 -22 34 -20 44 3 12 -2 19 -12 19 -13 0 -13 -2 -2 -17 13
-15 12 -15 -8 -2 -15 9 -18 16 -11 20 13 8 20 39 10 38 -22 -3 -32 3 -32 20 0
11 -5 21 -11 23 -5 2 -11 12 -13 23 -2 11 -13 25 -26 32 -28 14 -40 32 -33 50
3 7 1 13 -5 13 -6 0 -12 -5 -14 -12 -3 -9 -6 -9 -12 0 -4 7 -2 12 3 12 6 0 11
5 11 11 0 6 -6 9 -14 6 -7 -3 -20 3 -29 14 -9 10 -13 19 -7 19 5 0 13 -7 18
-16 6 -11 9 -7 9 18 0 18 -2 27 -4 21 -6 -16 -33 -17 -33 -2 0 6 -7 9 -15 6
-8 -4 -17 -1 -21 5 -4 7 -3 8 4 4 8 -5 12 1 12 16 0 16 -3 19 -8 10 -7 -9 -15
-10 -33 -2 -21 9 -21 10 -2 6 12 -2 24 2 26 9 4 8 -5 11 -31 9 -37 -3 -37 -2
-12 11 23 13 23 14 4 15 -11 0 -25 -5 -30 -10 -7 -7 -11 -6 -11 4 0 8 4 13 9
10 4 -3 8 0 8 7 0 6 -8 9 -18 7 -11 -3 -19 0 -20 8 -1 8 -3 20 -4 28 -1 8 -9
11 -20 8 -10 -2 -18 1 -18 7 0 6 -5 11 -11 11 -5 0 -7 -5 -3 -11 4 -7 -14 3
-39 22 -26 19 -44 39 -42 46 2 7 -1 15 -7 19 -7 4 -8 3 -4 -4 4 -7 2 -12 -4
-12 -6 0 -9 -4 -6 -8 3 -5 -1 -9 -7 -9 -7 0 -14 10 -15 21 -1 17 1 18 8 6 5
-8 10 -11 10 -7 0 5 -8 19 -18 32 -18 23 -19 23 -31 3 -9 -14 -15 -17 -25 -9
-7 6 -17 7 -22 3 -5 -4 -6 -3 -2 2 4 5 3 15 -3 23 -19 22 -1 15 21 -9 15 -16
20 -18 20 -6 0 8 -12 20 -26 26 -16 8 -22 17 -18 25 4 6 4 9 -1 5 -4 -4 -17
-3 -28 3 -13 7 -17 7 -13 1 3 -6 2 -13 -4 -17 -5 -3 -10 1 -10 9 0 17 -9 20
-34 10 -9 -3 -13 -11 -9 -17 3 -6 1 -7 -6 -3 -6 4 -9 12 -6 17 4 5 -1 12 -10
15 -12 5 -13 9 -3 21 8 10 0 8 -24 -5 -35 -20 -35 -20 -52 -1 -9 11 -21 17
-26 14 -6 -3 -10 -2 -10 4 0 5 3 11 8 14 4 2 2 3 -4 1 -6 -1 -17 3 -24 9 -10
9 -11 9 -6 0 5 -8 1 -13 -9 -13 -9 0 -13 5 -10 10 3 6 1 10 -4 10 -6 0 -11 -4
-11 -9 0 -6 -9 -9 -19 -8 -11 0 -17 5 -15 9 3 5 10 5 16 2 7 -4 8 -2 4 4 -7
12 -36 5 -49 -12 -4 -6 -5 1 -3 16 3 20 1 25 -9 22 -8 -3 -11 -13 -9 -22 5
-15 4 -15 -6 1 -6 9 -16 17 -22 17 -6 0 -5 -7 3 -17 13 -16 12 -17 -3 -5 -9 8
-22 11 -29 7 -8 -6 -8 -2 0 12 6 11 7 24 3 28 -4 5 -1 5 6 1 7 -4 9 -13 6 -19
-5 -9 -4 -9 6 0 7 6 18 10 24 9 6 -2 8 -1 4 1 -4 3 -10 4 -14 3 -4 -1 -10 4
-15 11 -6 10 -11 10 -23 0 -11 -9 -16 -10 -16 -2 0 6 -5 11 -11 11 -5 0 -7 -6
-3 -12 5 -8 0 -7 -11 2 -13 10 -16 11 -11 2 7 -11 4 -11 -13 0 -18 11 -23 11
-31 -2 -5 -8 -10 -10 -10 -4 0 7 -28 12 -80 12 -60 1 -79 -2 -73 -11 5 -9 4
-9 -8 0 -20 16 -122 15 -112 0 5 -9 3 -8 -8 0 -20 16 -122 15 -112 0 5 -9 3
-8 -8 0 -20 16 -122 15 -112 0 5 -9 3 -8 -8 0 -20 16 -122 15 -112 0 5 -9 3
-8 -8 0 -20 16 -122 15 -112 0 5 -9 3 -8 -8 0 -20 16 -122 15 -112 0 5 -9 3
-8 -8 0 -20 16 -122 15 -112 0 5 -9 3 -8 -8 0 -20 16 -122 15 -112 0 5 -9 3
-8 -8 0 -20 16 -122 15 -112 0 5 -9 3 -8 -8 0 -20 16 -122 15 -112 0 5 -9 3
-8 -8 0 -20 16 -122 15 -112 0 5 -9 3 -8 -8 0 -20 16 -122 15 -112 0 5 -9 3
-8 -8 0 -20 16 -122 15 -112 0 5 -9 3 -9 -8 0 -20 16 -249 16 -249 0 0 -8 -3
-8 -8 -2 -8 12 -103 15 -96 3 8 -12 -11 -9 -24 4 -9 9 -11 6 -7 -10z m2186
-35 c-10 -9 -11 -8 -5 6 3 10 9 15 12 12 3 -3 0 -11 -7 -18z m-2528 -112 c-3
-9 -8 -14 -10 -11 -3 3 -2 9 2 15 9 16 15 13 8 -4z m2982 6 c3 -5 1 -12 -5
-16 -6 -4 -7 -12 -4 -18 4 -7 3 -9 -1 -4 -13 11 -17 47 -6 47 6 0 12 -4 16 -9z
m-3005 -20 c0 -5 -6 -14 -14 -20 -12 -10 -14 -9 -11 6 2 10 4 19 4 21 2 6 21
1 21 -7z m3095 -31 c3 -5 1 -10 -4 -10 -6 0 -11 5 -11 10 0 6 2 10 4 10 3 0 8
-4 11 -10z m-3188 -18 c9 -6 7 -11 -7 -19 -14 -10 -19 -9 -23 1 -9 23 7 32 30
18z m3354 -125 c-10 -9 -11 -8 -5 6 3 10 9 15 12 12 3 -3 0 -11 -7 -18z m283
-266 c3 -5 -2 -15 -12 -22 -15 -13 -16 -12 -4 3 10 13 10 17 0 21 -9 4 -9 6
-1 6 6 1 14 -3 17 -8z m23 -57 c-3 -3 -12 -4 -19 -1 -8 3 -5 6 6 6 11 1 17 -2
13 -5z m37 -42 c3 -5 -1 -9 -9 -9 -8 0 -12 4 -9 9 3 4 7 8 9 8 2 0 6 -4 9 -8z
m-4207 -31 c0 -11 -5 -18 -9 -15 -4 3 -5 11 -1 19 7 21 12 19 10 -4z m4238
-41 c3 -5 1 -10 -4 -10 -6 0 -11 5 -11 10 0 6 2 10 4 10 3 0 8 -4 11 -10z m52
-106 c-3 -3 -12 -4 -19 -1 -8 3 -5 6 6 6 11 1 17 -2 13 -5z m48 -134 c3 -5 1
-10 -4 -10 -6 0 -11 5 -11 10 0 6 2 10 4 10 3 0 8 -4 11 -10z m-4474 -74 c-6
-7 -7 -17 -3 -21 4 -5 1 -5 -6 -1 -9 6 -10 11 -3 20 6 7 7 17 3 21 -4 5 -1 5
6 1 9 -6 10 -11 3 -20z m4559 -362 c0 -8 -19 -13 -24 -6 -3 5 1 9 9 9 8 0 15
-2 15 -3z m-5 -184 c3 -5 1 -10 -4 -10 -6 0 -11 5 -11 10 0 6 2 10 4 10 3 0 8
-4 11 -10z m9 -41 c-8 -14 -21 -11 -21 5 0 8 6 12 14 9 7 -3 10 -9 7 -14z m-7
-65 c-9 -9 -28 6 -21 18 4 6 10 6 17 -1 6 -6 8 -13 4 -17z m-3 -222 c3 -5 -1
-9 -9 -9 -8 0 -12 4 -9 9 3 4 7 8 9 8 2 0 6 -4 9 -8z m0 -320 c3 -5 -1 -9 -9
-9 -8 0 -12 4 -9 9 3 4 7 8 9 8 2 0 6 -4 9 -8z m9 -114 c-8 -14 -19 -8 -20 12
-1 16 1 17 12 7 7 -6 11 -15 8 -19z m-7 -63 c-2 -7 1 -18 7 -24 9 -9 8 -11 -6
-5 -12 4 -16 12 -11 26 4 15 3 18 -6 13 -9 -5 -11 -4 -6 4 9 15 29 3 22 -14z
m-1 -135 c3 -5 1 -10 -4 -10 -6 0 -11 5 -11 10 0 6 2 10 4 10 3 0 8 -4 11 -10z
m9 -41 c-8 -14 -21 -11 -21 5 0 8 6 12 14 9 7 -3 10 -9 7 -14z m-7 -65 c-9 -9
-28 6 -21 18 4 6 10 6 17 -1 6 -6 8 -13 4 -17z m8 -404 c3 -6 -1 -7 -9 -4 -18
7 -21 14 -7 14 6 0 13 -4 16 -10z m-7 -68 c2 -7 -1 -12 -8 -12 -6 0 -9 4 -6 9
4 5 1 12 -4 14 -6 3 -5 4 2 3 6 -1 14 -8 16 -14z m-23 -142 c3 -5 1 -10 -4
-10 -6 0 -11 5 -11 10 0 6 2 10 4 10 3 0 8 -4 11 -10z m-25 -125 c-5 -6 -7
-15 -3 -19 4 -4 -1 -4 -11 0 -13 5 -14 9 -6 14 7 4 10 13 6 19 -5 7 -1 9 9 5
11 -5 13 -10 5 -19z m-4305 -535 c3 -5 1 -10 -4 -10 -6 0 -11 5 -11 10 0 6 2
10 4 10 3 0 8 -4 11 -10z m58 -90 c-3 -11 -9 -17 -15 -14 -5 3 -4 12 3 20 16
19 18 18 12 -6z m3500 -393 c-3 -5 -10 -4 -15 1 -6 6 -7 16 -3 22 6 9 9 9 16
-1 4 -7 5 -17 2 -22z m-2843 -52 c4 3 13 -2 19 -9 9 -11 9 -14 -1 -12 -23 3
-38 17 -37 34 1 15 2 15 6 -1 2 -9 8 -15 13 -12z m2701 2 c-10 -9 -11 -8 -5 6
3 10 9 15 12 12 3 -3 0 -11 -7 -18z m-2426 -67 c3 -5 1 -10 -4 -10 -6 0 -11 5
-11 10 0 6 2 10 4 10 3 0 8 -4 11 -10z m-64 -23 c-10 -9 -11 -8 -5 6 3 10 9
15 12 12 3 -3 0 -11 -7 -18z"/>
<path d="M3455 4640 c3 -5 8 -10 11 -10 2 0 4 5 4 10 0 6 -5 10 -11 10 -5 0
-7 -4 -4 -10z"/>
<path d="M3486 4622 c-3 -5 1 -9 9 -9 8 0 12 4 9 9 -3 4 -7 8 -9 8 -2 0 -6 -4
-9 -8z"/>
<path d="M3628 4563 c7 -3 16 -2 19 1 4 3 -2 6 -13 5 -11 0 -14 -3 -6 -6z"/>
<path d="M3651 4553 c-7 -8 -11 -16 -8 -19 2 -2 10 2 17 11 17 20 9 27 -9 8z"/>
<path d="M3723 4535 c0 -8 4 -12 9 -9 5 3 6 10 3 15 -9 13 -12 11 -12 -6z"/>
<path d="M715 4461 c-6 -11 13 -26 22 -17 4 3 1 6 -6 6 -7 0 -9 5 -6 10 3 6 4
10 1 10 -3 0 -7 -4 -11 -9z"/>
<path d="M3977 4403 c-4 -7 5 -20 23 -33 16 -12 30 -17 30 -11 0 6 -5 11 -11
11 -5 0 -7 4 -4 10 3 5 0 7 -9 4 -9 -3 -16 2 -18 13 -2 12 -6 14 -11 6z"/>
<path d="M476 4292 c-3 -5 1 -9 9 -9 8 0 12 4 9 9 -3 4 -7 8 -9 8 -2 0 -6 -4
-9 -8z"/>
<path d="M430 4219 c0 -5 5 -7 10 -4 6 3 10 8 10 11 0 2 -4 4 -10 4 -5 0 -10
-5 -10 -11z"/>
<path d="M4317 4073 c3 -7 6 -13 8 -13 2 0 5 6 8 13 3 8 -1 14 -8 14 -7 0 -11
-6 -8 -14z"/>
<path d="M4517 3704 c-9 -10 12 -46 24 -39 5 4 9 12 9 18 0 8 -3 8 -9 -1 -7
-11 -9 -11 -14 2 -3 8 -1 17 6 20 7 3 8 5 1 5 -6 1 -14 -2 -17 -5z"/>
<path d="M4556 3581 c-4 -5 -2 -12 3 -15 5 -4 12 -2 15 3 4 5 2 12 -3 15 -5 4
-12 2 -15 -3z"/>
<path d="M4603 3419 c-2 -23 3 -25 10 -4 4 8 3 16 -1 19 -4 3 -9 -4 -9 -15z"/>
<path d="M4606 3378 c3 -4 9 -8 15 -8 5 0 9 4 9 8 0 5 -7 9 -15 9 -8 0 -12 -4
-9 -9z"/>
<path d="M4623 3345 c0 -7 6 -11 14 -8 7 3 13 6 13 8 0 2 -6 5 -13 8 -8 3 -14
-1 -14 -8z"/>
<path d="M4620 2626 c0 -2 7 -7 16 -10 8 -3 12 -2 9 4 -6 10 -25 14 -25 6z"/>
<path d="M4623 2423 c0 -7 4 -13 8 -13 4 0 9 6 12 13 3 8 0 14 -7 14 -7 0 -13
-6 -13 -14z"/>
<path d="M4620 2306 c0 -2 7 -7 16 -10 8 -3 12 -2 9 4 -6 10 -25 14 -25 6z"/>
<path d="M4620 2115 c0 -2 6 -8 13 -14 10 -8 14 -7 14 2 0 8 -6 14 -14 14 -7
0 -13 -1 -13 -2z"/>
<path d="M4628 1763 c7 -3 16 -2 19 1 4 3 -2 6 -13 5 -11 0 -14 -3 -6 -6z"/>
<path d="M4626 1741 c-4 -5 -2 -12 3 -15 5 -4 12 -2 15 3 4 5 2 12 -3 15 -5 4
-12 2 -15 -3z"/>
<path d="M4615 1350 c-3 -6 1 -7 9 -4 18 7 21 14 7 14 -6 0 -13 -4 -16 -10z"/>
<path d="M40 1180 c0 -5 5 -10 11 -10 5 0 7 5 4 10 -3 6 -8 10 -11 10 -2 0 -4
-4 -4 -10z"/>
<path d="M16 1163 c-6 -14 -5 -15 5 -6 7 7 10 15 7 18 -3 3 -9 -2 -12 -12z"/>
<path d="M4547 1009 c7 -7 15 -10 18 -7 3 3 -2 9 -12 12 -14 6 -15 5 -6 -5z"/>
<path d="M74 988 c-4 -7 -3 -8 4 -4 11 6 16 -6 13 -26 0 -5 6 -8 14 -8 14 0
13 3 -1 25 -19 29 -20 29 -30 13z"/>
<path d="M4476 861 c-3 -5 1 -11 9 -14 9 -4 12 -1 8 9 -6 16 -10 17 -17 5z"/>
<path d="M4466 831 c-4 -5 -2 -12 3 -15 5 -4 12 -2 15 3 4 5 2 12 -3 15 -5 4
-12 2 -15 -3z"/>
<path d="M4440 795 c-11 -13 -10 -14 4 -9 9 3 16 10 16 15 0 13 -6 11 -20 -6z"/>
<path d="M270 620 c-13 -8 -12 -10 3 -10 9 0 17 -5 17 -12 0 -6 3 -9 6 -5 3 3
2 12 -3 21 -6 10 -13 12 -23 6z"/>
<path d="M930 124 c0 -8 5 -12 10 -9 6 4 8 11 5 16 -9 14 -15 11 -15 -7z"/>
<path d="M3464 48 c-4 -7 -4 -10 1 -6 4 4 14 3 21 -3 9 -7 14 -6 20 3 4 7 4
10 -1 6 -4 -4 -14 -3 -21 3 -9 7 -14 6 -20 -3z"/>
<path d="M3436 23 c-6 -14 -5 -15 5 -6 7 7 10 15 7 18 -3 3 -9 -2 -12 -12z"/>
</g>
</svg>